<svg width="237" height="78" viewBox="0 0 237 78" fill="none" xmlns="http://www.w3.org/2000/svg">
<rect x="0.5" y="0.5" width="236" height="77" rx="15.5" fill="#0C0D10" stroke="#A6A6A6"/>
<path d="M73.0781 27V18.4688H75.4629C76.1621 18.4688 76.7891 18.6289 77.3438 18.9492C77.8984 19.2656 78.3301 19.7207 78.6387 20.3145C78.9512 20.9082 79.1074 21.584 79.1074 22.3418V23.127C79.1074 23.8887 78.9531 24.5645 78.6445 25.1543C78.3359 25.7441 77.9004 26.1992 77.3379 26.5195C76.7793 26.8398 76.1367 27 75.4102 27H73.0781ZM73.7988 19.084V26.3906H75.416C76.3145 26.3906 77.0352 26.0938 77.5781 25.5C78.1211 24.9023 78.3926 24.0957 78.3926 23.0801V22.3301C78.3926 21.3496 78.125 20.5645 77.5898 19.9746C77.0547 19.3848 76.3496 19.0879 75.4746 19.084H73.7988ZM80.3906 23.7363C80.3906 23.127 80.5078 22.5781 80.7422 22.0898C80.9805 21.6016 81.3145 21.2227 81.7441 20.9531C82.1777 20.6797 82.668 20.543 83.2148 20.543C84.0586 20.543 84.7422 20.8398 85.2656 21.4336C85.7891 22.0234 86.0508 22.8066 86.0508 23.7832V23.9297C86.0508 24.543 85.9316 25.0957 85.6934 25.5879C85.459 26.0762 85.127 26.4531 84.6973 26.7188C84.2676 26.9844 83.7773 27.1172 83.2266 27.1172C82.3867 27.1172 81.7031 26.8223 81.1758 26.2324C80.6523 25.6387 80.3906 24.8535 80.3906 23.877V23.7363ZM81.0938 23.9297C81.0938 24.6875 81.2891 25.3105 81.6797 25.7988C82.0742 26.2832 82.5898 26.5254 83.2266 26.5254C83.8594 26.5254 84.3711 26.2832 84.7617 25.7988C85.1562 25.3105 85.3535 24.668 85.3535 23.8711V23.7363C85.3535 23.252 85.2637 22.8086 85.084 22.4062C84.9043 22.0039 84.6523 21.6934 84.3281 21.4746C84.0039 21.252 83.6328 21.1406 83.2148 21.1406C82.5898 21.1406 82.0801 21.3867 81.6855 21.8789C81.291 22.3672 81.0938 23.0078 81.0938 23.8008V23.9297ZM89.0215 25.541L89.127 26.0859L89.2676 25.5117L90.791 20.6602H91.3887L92.8945 25.4707L93.0586 26.1387L93.1934 25.5234L94.4941 20.6602H95.2207L93.375 27H92.7773L91.1484 21.9727L91.0723 21.627L90.9961 21.9785L89.3965 27H88.7988L86.959 20.6602H87.6797L89.0215 25.541ZM97.2188 20.6602L97.2422 21.7441C97.4805 21.3535 97.7773 21.0566 98.1328 20.8535C98.4883 20.6465 98.8809 20.543 99.3105 20.543C99.9902 20.543 100.496 20.7344 100.828 21.1172C101.16 21.5 101.328 22.0742 101.332 22.8398V27H100.635V22.834C100.631 22.2676 100.51 21.8457 100.271 21.5684C100.037 21.291 99.6602 21.1523 99.1406 21.1523C98.707 21.1523 98.3223 21.2891 97.9863 21.5625C97.6543 21.832 97.4082 22.1973 97.248 22.6582V27H96.5508V20.6602H97.2188ZM103.934 27H103.23V18H103.934V27ZM105.457 23.7363C105.457 23.127 105.574 22.5781 105.809 22.0898C106.047 21.6016 106.381 21.2227 106.811 20.9531C107.244 20.6797 107.734 20.543 108.281 20.543C109.125 20.543 109.809 20.8398 110.332 21.4336C110.855 22.0234 111.117 22.8066 111.117 23.7832V23.9297C111.117 24.543 110.998 25.0957 110.76 25.5879C110.525 26.0762 110.193 26.4531 109.764 26.7188C109.334 26.9844 108.844 27.1172 108.293 27.1172C107.453 27.1172 106.77 26.8223 106.242 26.2324C105.719 25.6387 105.457 24.8535 105.457 23.877V23.7363ZM106.16 23.9297C106.16 24.6875 106.355 25.3105 106.746 25.7988C107.141 26.2832 107.656 26.5254 108.293 26.5254C108.926 26.5254 109.438 26.2832 109.828 25.7988C110.223 25.3105 110.42 24.668 110.42 23.8711V23.7363C110.42 23.252 110.33 22.8086 110.15 22.4062C109.971 22.0039 109.719 21.6934 109.395 21.4746C109.07 21.252 108.699 21.1406 108.281 21.1406C107.656 21.1406 107.146 21.3867 106.752 21.8789C106.357 22.3672 106.16 23.0078 106.16 23.8008V23.9297ZM116.572 27C116.502 26.8008 116.457 26.5059 116.438 26.1152C116.191 26.4355 115.877 26.6836 115.494 26.8594C115.115 27.0312 114.713 27.1172 114.287 27.1172C113.678 27.1172 113.184 26.9473 112.805 26.6074C112.43 26.2676 112.242 25.8379 112.242 25.3184C112.242 24.7012 112.498 24.2129 113.01 23.8535C113.525 23.4941 114.242 23.3145 115.16 23.3145H116.432V22.5938C116.432 22.1406 116.291 21.7852 116.01 21.5273C115.732 21.2656 115.326 21.1348 114.791 21.1348C114.303 21.1348 113.898 21.2598 113.578 21.5098C113.258 21.7598 113.098 22.0605 113.098 22.4121L112.395 22.4062C112.395 21.9023 112.629 21.4668 113.098 21.0996C113.566 20.7285 114.143 20.543 114.826 20.543C115.533 20.543 116.09 20.7207 116.496 21.0762C116.906 21.4277 117.117 21.9199 117.129 22.5527V25.5527C117.129 26.166 117.193 26.625 117.322 26.9297V27H116.572ZM114.369 26.4961C114.838 26.4961 115.256 26.3828 115.623 26.1562C115.994 25.9297 116.264 25.627 116.432 25.248V23.8535H115.178C114.479 23.8613 113.932 23.9902 113.537 24.2402C113.143 24.4863 112.945 24.8262 112.945 25.2598C112.945 25.6152 113.076 25.9102 113.338 26.1445C113.604 26.3789 113.947 26.4961 114.369 26.4961ZM118.723 23.7715C118.723 22.7871 118.941 22.0039 119.379 21.4219C119.82 20.8359 120.418 20.543 121.172 20.543C122.027 20.543 122.68 20.8809 123.129 21.5566V18H123.826V27H123.17L123.141 26.1562C122.691 26.7969 122.031 27.1172 121.16 27.1172C120.43 27.1172 119.84 26.8242 119.391 26.2383C118.945 25.6484 118.723 24.8535 118.723 23.8535V23.7715ZM119.432 23.8945C119.432 24.7031 119.594 25.3418 119.918 25.8105C120.242 26.2754 120.699 26.5078 121.289 26.5078C122.152 26.5078 122.766 26.127 123.129 25.3652V22.3887C122.766 21.5645 122.156 21.1523 121.301 21.1523C120.711 21.1523 120.252 21.3848 119.924 21.8496C119.596 22.3105 119.432 22.9922 119.432 23.8945ZM128.203 23.7363C128.203 23.127 128.32 22.5781 128.555 22.0898C128.793 21.6016 129.127 21.2227 129.557 20.9531C129.99 20.6797 130.48 20.543 131.027 20.543C131.871 20.543 132.555 20.8398 133.078 21.4336C133.602 22.0234 133.863 22.8066 133.863 23.7832V23.9297C133.863 24.543 133.744 25.0957 133.506 25.5879C133.271 26.0762 132.939 26.4531 132.51 26.7188C132.08 26.9844 131.59 27.1172 131.039 27.1172C130.199 27.1172 129.516 26.8223 128.988 26.2324C128.465 25.6387 128.203 24.8535 128.203 23.877V23.7363ZM128.906 23.9297C128.906 24.6875 129.102 25.3105 129.492 25.7988C129.887 26.2832 130.402 26.5254 131.039 26.5254C131.672 26.5254 132.184 26.2832 132.574 25.7988C132.969 25.3105 133.166 24.668 133.166 23.8711V23.7363C133.166 23.252 133.076 22.8086 132.896 22.4062C132.717 22.0039 132.465 21.6934 132.141 21.4746C131.816 21.252 131.445 21.1406 131.027 21.1406C130.402 21.1406 129.893 21.3867 129.498 21.8789C129.104 22.3672 128.906 23.0078 128.906 23.8008V23.9297ZM135.984 20.6602L136.008 21.7441C136.246 21.3535 136.543 21.0566 136.898 20.8535C137.254 20.6465 137.646 20.543 138.076 20.543C138.756 20.543 139.262 20.7344 139.594 21.1172C139.926 21.5 140.094 22.0742 140.098 22.8398V27H139.4V22.834C139.396 22.2676 139.275 21.8457 139.037 21.5684C138.803 21.291 138.426 21.1523 137.906 21.1523C137.473 21.1523 137.088 21.2891 136.752 21.5625C136.42 21.832 136.174 22.1973 136.014 22.6582V27H135.316V20.6602H135.984ZM145.922 19.0371V20.6602H147.234V21.2344H145.922V25.459C145.922 25.8105 145.984 26.0723 146.109 26.2441C146.238 26.416 146.451 26.502 146.748 26.502C146.865 26.502 147.055 26.4824 147.316 26.4434L147.346 27.0176C147.162 27.084 146.912 27.1172 146.596 27.1172C146.115 27.1172 145.766 26.9785 145.547 26.7012C145.328 26.4199 145.219 26.0078 145.219 25.4648V21.2344H144.053V20.6602H145.219V19.0371H145.922ZM149.385 21.7324C149.615 21.3535 149.91 21.0605 150.27 20.8535C150.629 20.6465 151.021 20.543 151.447 20.543C152.127 20.543 152.633 20.7344 152.965 21.1172C153.297 21.5 153.465 22.0742 153.469 22.8398V27H152.771V22.834C152.768 22.2676 152.646 21.8457 152.408 21.5684C152.174 21.291 151.797 21.1523 151.277 21.1523C150.844 21.1523 150.459 21.2891 150.123 21.5625C149.791 21.832 149.545 22.1973 149.385 22.6582V27H148.688V18H149.385V21.7324ZM157.729 27.1172C157.189 27.1172 156.701 26.9844 156.264 26.7188C155.83 26.4531 155.492 26.084 155.25 25.6113C155.008 25.1348 154.887 24.6016 154.887 24.0117V23.7598C154.887 23.1504 155.004 22.6016 155.238 22.1133C155.477 21.625 155.807 21.2422 156.229 20.9648C156.65 20.6836 157.107 20.543 157.6 20.543C158.369 20.543 158.979 20.8066 159.428 21.334C159.881 21.8574 160.107 22.5742 160.107 23.4844V23.877H155.584V24.0117C155.584 24.7305 155.789 25.3301 156.199 25.8105C156.613 26.2871 157.133 26.5254 157.758 26.5254C158.133 26.5254 158.463 26.457 158.748 26.3203C159.037 26.1836 159.299 25.9648 159.533 25.6641L159.973 25.998C159.457 26.7441 158.709 27.1172 157.729 27.1172ZM157.6 21.1406C157.072 21.1406 156.627 21.334 156.264 21.7207C155.904 22.1074 155.686 22.627 155.607 23.2793H159.41V23.2031C159.391 22.5938 159.217 22.0977 158.889 21.7148C158.561 21.332 158.131 21.1406 157.6 21.1406Z" fill="white"/>
<path d="M83.2852 52.0273H76.6758L75.293 56H72.2109L78.6562 38.9375H81.3164L87.7734 56H84.6797L83.2852 52.0273ZM77.5078 49.6367H82.4531L79.9805 42.5586L77.5078 49.6367ZM99.9844 49.7891C99.9844 51.75 99.5391 53.3164 98.6484 54.4883C97.7578 55.6523 96.5625 56.2344 95.0625 56.2344C93.6719 56.2344 92.5586 55.7773 91.7227 54.8633V60.875H88.875V43.3203H91.5L91.6172 44.6094C92.4531 43.5938 93.5898 43.0859 95.0273 43.0859C96.5742 43.0859 97.7852 43.6641 98.6602 44.8203C99.543 45.9688 99.9844 47.5664 99.9844 49.6133V49.7891ZM97.1484 49.543C97.1484 48.2773 96.8945 47.2734 96.3867 46.5312C95.8867 45.7891 95.168 45.418 94.2305 45.418C93.0664 45.418 92.2305 45.8984 91.7227 46.8594V52.4844C92.2383 53.4688 93.082 53.9609 94.2539 53.9609C95.1602 53.9609 95.8672 53.5977 96.375 52.8711C96.8906 52.1367 97.1484 51.0273 97.1484 49.543ZM113.508 49.7891C113.508 51.75 113.062 53.3164 112.172 54.4883C111.281 55.6523 110.086 56.2344 108.586 56.2344C107.195 56.2344 106.082 55.7773 105.246 54.8633V60.875H102.398V43.3203H105.023L105.141 44.6094C105.977 43.5938 107.113 43.0859 108.551 43.0859C110.098 43.0859 111.309 43.6641 112.184 44.8203C113.066 45.9688 113.508 47.5664 113.508 49.6133V49.7891ZM110.672 49.543C110.672 48.2773 110.418 47.2734 109.91 46.5312C109.41 45.7891 108.691 45.418 107.754 45.418C106.59 45.418 105.754 45.8984 105.246 46.8594V52.4844C105.762 53.4688 106.605 53.9609 107.777 53.9609C108.684 53.9609 109.391 53.5977 109.898 52.8711C110.414 52.1367 110.672 51.0273 110.672 49.543ZM131.098 51.6055C131.098 50.8555 130.832 50.2773 130.301 49.8711C129.777 49.4648 128.828 49.0547 127.453 48.6406C126.078 48.2266 124.984 47.7656 124.172 47.2578C122.617 46.2812 121.84 45.0078 121.84 43.4375C121.84 42.0625 122.398 40.9297 123.516 40.0391C124.641 39.1484 126.098 38.7031 127.887 38.7031C129.074 38.7031 130.133 38.9219 131.062 39.3594C131.992 39.7969 132.723 40.4219 133.254 41.2344C133.785 42.0391 134.051 42.9336 134.051 43.918H131.098C131.098 43.0273 130.816 42.332 130.254 41.832C129.699 41.3242 128.902 41.0703 127.863 41.0703C126.895 41.0703 126.141 41.2773 125.602 41.6914C125.07 42.1055 124.805 42.6836 124.805 43.4258C124.805 44.0508 125.094 44.5742 125.672 44.9961C126.25 45.4102 127.203 45.8164 128.531 46.2148C129.859 46.6055 130.926 47.0547 131.73 47.5625C132.535 48.0625 133.125 48.6406 133.5 49.2969C133.875 49.9453 134.062 50.707 134.062 51.582C134.062 53.0039 133.516 54.1367 132.422 54.9805C131.336 55.8164 129.859 56.2344 127.992 56.2344C126.758 56.2344 125.621 56.0078 124.582 55.5547C123.551 55.0938 122.746 54.4609 122.168 53.6562C121.598 52.8516 121.312 51.9141 121.312 50.8438H124.277C124.277 51.8125 124.598 52.5625 125.238 53.0938C125.879 53.625 126.797 53.8906 127.992 53.8906C129.023 53.8906 129.797 53.6836 130.312 53.2695C130.836 52.8477 131.098 52.293 131.098 51.6055ZM139.957 40.2383V43.3203H142.195V45.4297H139.957V52.5078C139.957 52.9922 140.051 53.3438 140.238 53.5625C140.434 53.7734 140.777 53.8789 141.27 53.8789C141.598 53.8789 141.93 53.8398 142.266 53.7617V55.9648C141.617 56.1445 140.992 56.2344 140.391 56.2344C138.203 56.2344 137.109 55.0273 137.109 52.6133V45.4297H135.023V43.3203H137.109V40.2383H139.957ZM143.496 49.543C143.496 48.3008 143.742 47.1836 144.234 46.1914C144.727 45.1914 145.418 44.4258 146.309 43.8945C147.199 43.3555 148.223 43.0859 149.379 43.0859C151.09 43.0859 152.477 43.6367 153.539 44.7383C154.609 45.8398 155.188 47.3008 155.273 49.1211L155.285 49.7891C155.285 51.0391 155.043 52.1562 154.559 53.1406C154.082 54.125 153.395 54.8867 152.496 55.4258C151.605 55.9648 150.574 56.2344 149.402 56.2344C147.613 56.2344 146.18 55.6406 145.102 54.4531C144.031 53.2578 143.496 51.668 143.496 49.6836V49.543ZM146.344 49.7891C146.344 51.0938 146.613 52.1172 147.152 52.8594C147.691 53.5938 148.441 53.9609 149.402 53.9609C150.363 53.9609 151.109 53.5859 151.641 52.8359C152.18 52.0859 152.449 50.9883 152.449 49.543C152.449 48.2617 152.172 47.2461 151.617 46.4961C151.07 45.7461 150.324 45.3711 149.379 45.3711C148.449 45.3711 147.711 45.7422 147.164 46.4844C146.617 47.2188 146.344 48.3203 146.344 49.7891ZM164.332 45.9219C163.957 45.8594 163.57 45.8281 163.172 45.8281C161.867 45.8281 160.988 46.3281 160.535 47.3281V56H157.688V43.3203H160.406L160.477 44.7383C161.164 43.6367 162.117 43.0859 163.336 43.0859C163.742 43.0859 164.078 43.1406 164.344 43.25L164.332 45.9219ZM171.48 56.2344C169.676 56.2344 168.211 55.668 167.086 54.5352C165.969 53.3945 165.41 51.8789 165.41 49.9883V49.6367C165.41 48.3711 165.652 47.2422 166.137 46.25C166.629 45.25 167.316 44.4727 168.199 43.918C169.082 43.3633 170.066 43.0859 171.152 43.0859C172.879 43.0859 174.211 43.6367 175.148 44.7383C176.094 45.8398 176.566 47.3984 176.566 49.4141V50.5625H168.281C168.367 51.6094 168.715 52.4375 169.324 53.0469C169.941 53.6562 170.715 53.9609 171.645 53.9609C172.949 53.9609 174.012 53.4336 174.832 52.3789L176.367 53.8438C175.859 54.6016 175.18 55.1914 174.328 55.6133C173.484 56.0273 172.535 56.2344 171.48 56.2344ZM171.141 45.3711C170.359 45.3711 169.727 45.6445 169.242 46.1914C168.766 46.7383 168.461 47.5 168.328 48.4766H173.754V48.2656C173.691 47.3125 173.438 46.5938 172.992 46.1094C172.547 45.6172 171.93 45.3711 171.141 45.3711Z" fill="white"/>
<path d="M57.409 40.5262C57.4579 36.8209 59.4962 33.3148 62.7296 31.374C60.6898 28.5298 57.2731 26.7264 53.7184 26.6179C49.9271 26.2293 46.2516 28.8328 44.3196 28.8328C42.3502 28.8328 39.3755 26.6564 36.1724 26.7208C31.9972 26.8525 28.1048 29.17 26.0735 32.7337C21.707 40.1146 24.964 50.9619 29.1468 56.928C31.2395 59.8494 33.6853 63.1127 36.8856 62.997C40.0173 62.8702 41.1869 61.0474 44.9671 61.0474C48.7122 61.0474 49.8096 62.997 53.0748 62.9234C56.4352 62.8702 58.5524 59.989 60.5718 57.0399C62.0754 54.9583 63.2324 52.6577 64 50.2232C60.0509 48.5925 57.4136 44.7124 57.409 40.5262Z" fill="white"/>
<path d="M51.2415 22.6943C53.0738 20.5469 53.9764 17.7867 53.7579 15C50.9586 15.287 48.3729 16.5932 46.5159 18.6582C44.7 20.6759 43.755 23.3874 43.9336 26.0676C46.7339 26.0958 49.4868 24.825 51.2415 22.6943Z" fill="white"/>
</svg>
