<svg width="237" height="78" viewBox="0 0 237 78" fill="none" xmlns="http://www.w3.org/2000/svg">
<rect x="0.5" y="0.5" width="236" height="77" rx="15.5" fill="#0C0D10" stroke="#A6A6A6"/>
<g filter="url(#filter0_ii_144_1309)">
<path d="M24.828 16.7101C24.3076 17.261 24 18.1159 24 19.2229V58.776C24 59.8849 24.3076 60.738 24.828 61.2888L24.9604 61.4176L47.1174 39.2606V38.9995V38.7384L24.9604 16.5796L24.828 16.7101Z" fill="url(#paint0_linear_144_1309)"/>
<path d="M54.5019 46.6486L47.1174 39.2605V38.9994V38.7383L54.5037 31.3521L54.67 31.4468L63.4208 36.4187C65.9193 37.8387 65.9193 40.1619 63.4208 41.5837L54.67 46.5556L54.5019 46.6486Z" fill="url(#paint1_linear_144_1309)"/>
<g filter="url(#filter1_i_144_1309)">
<path d="M54.67 46.5539L47.1157 38.9995L24.8281 61.2888C25.6508 62.1616 27.0118 62.2689 28.5445 61.3997L54.67 46.5539Z" fill="url(#paint2_linear_144_1309)"/>
</g>
<path d="M54.67 31.4451L28.5445 16.6011C27.0118 15.7301 25.6508 15.8392 24.8281 16.7119L47.1174 39.0013L54.67 31.4451Z" fill="url(#paint3_linear_144_1309)"/>
</g>
<path d="M75.0781 27V18.4688H77.4629C78.1621 18.4688 78.7891 18.6289 79.3438 18.9492C79.8984 19.2656 80.3301 19.7207 80.6387 20.3145C80.9512 20.9082 81.1074 21.584 81.1074 22.3418V23.127C81.1074 23.8887 80.9531 24.5645 80.6445 25.1543C80.3359 25.7441 79.9004 26.1992 79.3379 26.5195C78.7793 26.8398 78.1367 27 77.4102 27H75.0781ZM75.7988 19.084V26.3906H77.416C78.3145 26.3906 79.0352 26.0938 79.5781 25.5C80.1211 24.9023 80.3926 24.0957 80.3926 23.0801V22.3301C80.3926 21.3496 80.125 20.5645 79.5898 19.9746C79.0547 19.3848 78.3496 19.0879 77.4746 19.084H75.7988ZM82.3906 23.7363C82.3906 23.127 82.5078 22.5781 82.7422 22.0898C82.9805 21.6016 83.3145 21.2227 83.7441 20.9531C84.1777 20.6797 84.668 20.543 85.2148 20.543C86.0586 20.543 86.7422 20.8398 87.2656 21.4336C87.7891 22.0234 88.0508 22.8066 88.0508 23.7832V23.9297C88.0508 24.543 87.9316 25.0957 87.6934 25.5879C87.459 26.0762 87.127 26.4531 86.6973 26.7188C86.2676 26.9844 85.7773 27.1172 85.2266 27.1172C84.3867 27.1172 83.7031 26.8223 83.1758 26.2324C82.6523 25.6387 82.3906 24.8535 82.3906 23.877V23.7363ZM83.0938 23.9297C83.0938 24.6875 83.2891 25.3105 83.6797 25.7988C84.0742 26.2832 84.5898 26.5254 85.2266 26.5254C85.8594 26.5254 86.3711 26.2832 86.7617 25.7988C87.1562 25.3105 87.3535 24.668 87.3535 23.8711V23.7363C87.3535 23.252 87.2637 22.8086 87.084 22.4062C86.9043 22.0039 86.6523 21.6934 86.3281 21.4746C86.0039 21.252 85.6328 21.1406 85.2148 21.1406C84.5898 21.1406 84.0801 21.3867 83.6855 21.8789C83.291 22.3672 83.0938 23.0078 83.0938 23.8008V23.9297ZM91.0215 25.541L91.127 26.0859L91.2676 25.5117L92.791 20.6602H93.3887L94.8945 25.4707L95.0586 26.1387L95.1934 25.5234L96.4941 20.6602H97.2207L95.375 27H94.7773L93.1484 21.9727L93.0723 21.627L92.9961 21.9785L91.3965 27H90.7988L88.959 20.6602H89.6797L91.0215 25.541ZM99.2188 20.6602L99.2422 21.7441C99.4805 21.3535 99.7773 21.0566 100.133 20.8535C100.488 20.6465 100.881 20.543 101.311 20.543C101.99 20.543 102.496 20.7344 102.828 21.1172C103.16 21.5 103.328 22.0742 103.332 22.8398V27H102.635V22.834C102.631 22.2676 102.51 21.8457 102.271 21.5684C102.037 21.291 101.66 21.1523 101.141 21.1523C100.707 21.1523 100.322 21.2891 99.9863 21.5625C99.6543 21.832 99.4082 22.1973 99.248 22.6582V27H98.5508V20.6602H99.2188ZM105.934 27H105.23V18H105.934V27ZM107.457 23.7363C107.457 23.127 107.574 22.5781 107.809 22.0898C108.047 21.6016 108.381 21.2227 108.811 20.9531C109.244 20.6797 109.734 20.543 110.281 20.543C111.125 20.543 111.809 20.8398 112.332 21.4336C112.855 22.0234 113.117 22.8066 113.117 23.7832V23.9297C113.117 24.543 112.998 25.0957 112.76 25.5879C112.525 26.0762 112.193 26.4531 111.764 26.7188C111.334 26.9844 110.844 27.1172 110.293 27.1172C109.453 27.1172 108.77 26.8223 108.242 26.2324C107.719 25.6387 107.457 24.8535 107.457 23.877V23.7363ZM108.16 23.9297C108.16 24.6875 108.355 25.3105 108.746 25.7988C109.141 26.2832 109.656 26.5254 110.293 26.5254C110.926 26.5254 111.438 26.2832 111.828 25.7988C112.223 25.3105 112.42 24.668 112.42 23.8711V23.7363C112.42 23.252 112.33 22.8086 112.15 22.4062C111.971 22.0039 111.719 21.6934 111.395 21.4746C111.07 21.252 110.699 21.1406 110.281 21.1406C109.656 21.1406 109.146 21.3867 108.752 21.8789C108.357 22.3672 108.16 23.0078 108.16 23.8008V23.9297ZM118.572 27C118.502 26.8008 118.457 26.5059 118.438 26.1152C118.191 26.4355 117.877 26.6836 117.494 26.8594C117.115 27.0312 116.713 27.1172 116.287 27.1172C115.678 27.1172 115.184 26.9473 114.805 26.6074C114.43 26.2676 114.242 25.8379 114.242 25.3184C114.242 24.7012 114.498 24.2129 115.01 23.8535C115.525 23.4941 116.242 23.3145 117.16 23.3145H118.432V22.5938C118.432 22.1406 118.291 21.7852 118.01 21.5273C117.732 21.2656 117.326 21.1348 116.791 21.1348C116.303 21.1348 115.898 21.2598 115.578 21.5098C115.258 21.7598 115.098 22.0605 115.098 22.4121L114.395 22.4062C114.395 21.9023 114.629 21.4668 115.098 21.0996C115.566 20.7285 116.143 20.543 116.826 20.543C117.533 20.543 118.09 20.7207 118.496 21.0762C118.906 21.4277 119.117 21.9199 119.129 22.5527V25.5527C119.129 26.166 119.193 26.625 119.322 26.9297V27H118.572ZM116.369 26.4961C116.838 26.4961 117.256 26.3828 117.623 26.1562C117.994 25.9297 118.264 25.627 118.432 25.248V23.8535H117.178C116.479 23.8613 115.932 23.9902 115.537 24.2402C115.143 24.4863 114.945 24.8262 114.945 25.2598C114.945 25.6152 115.076 25.9102 115.338 26.1445C115.604 26.3789 115.947 26.4961 116.369 26.4961ZM120.723 23.7715C120.723 22.7871 120.941 22.0039 121.379 21.4219C121.82 20.8359 122.418 20.543 123.172 20.543C124.027 20.543 124.68 20.8809 125.129 21.5566V18H125.826V27H125.17L125.141 26.1562C124.691 26.7969 124.031 27.1172 123.16 27.1172C122.43 27.1172 121.84 26.8242 121.391 26.2383C120.945 25.6484 120.723 24.8535 120.723 23.8535V23.7715ZM121.432 23.8945C121.432 24.7031 121.594 25.3418 121.918 25.8105C122.242 26.2754 122.699 26.5078 123.289 26.5078C124.152 26.5078 124.766 26.127 125.129 25.3652V22.3887C124.766 21.5645 124.156 21.1523 123.301 21.1523C122.711 21.1523 122.252 21.3848 121.924 21.8496C121.596 22.3105 121.432 22.9922 121.432 23.8945ZM130.203 23.7363C130.203 23.127 130.32 22.5781 130.555 22.0898C130.793 21.6016 131.127 21.2227 131.557 20.9531C131.99 20.6797 132.48 20.543 133.027 20.543C133.871 20.543 134.555 20.8398 135.078 21.4336C135.602 22.0234 135.863 22.8066 135.863 23.7832V23.9297C135.863 24.543 135.744 25.0957 135.506 25.5879C135.271 26.0762 134.939 26.4531 134.51 26.7188C134.08 26.9844 133.59 27.1172 133.039 27.1172C132.199 27.1172 131.516 26.8223 130.988 26.2324C130.465 25.6387 130.203 24.8535 130.203 23.877V23.7363ZM130.906 23.9297C130.906 24.6875 131.102 25.3105 131.492 25.7988C131.887 26.2832 132.402 26.5254 133.039 26.5254C133.672 26.5254 134.184 26.2832 134.574 25.7988C134.969 25.3105 135.166 24.668 135.166 23.8711V23.7363C135.166 23.252 135.076 22.8086 134.896 22.4062C134.717 22.0039 134.465 21.6934 134.141 21.4746C133.816 21.252 133.445 21.1406 133.027 21.1406C132.402 21.1406 131.893 21.3867 131.498 21.8789C131.104 22.3672 130.906 23.0078 130.906 23.8008V23.9297ZM137.984 20.6602L138.008 21.7441C138.246 21.3535 138.543 21.0566 138.898 20.8535C139.254 20.6465 139.646 20.543 140.076 20.543C140.756 20.543 141.262 20.7344 141.594 21.1172C141.926 21.5 142.094 22.0742 142.098 22.8398V27H141.4V22.834C141.396 22.2676 141.275 21.8457 141.037 21.5684C140.803 21.291 140.426 21.1523 139.906 21.1523C139.473 21.1523 139.088 21.2891 138.752 21.5625C138.42 21.832 138.174 22.1973 138.014 22.6582V27H137.316V20.6602H137.984ZM147.922 19.0371V20.6602H149.234V21.2344H147.922V25.459C147.922 25.8105 147.984 26.0723 148.109 26.2441C148.238 26.416 148.451 26.502 148.748 26.502C148.865 26.502 149.055 26.4824 149.316 26.4434L149.346 27.0176C149.162 27.084 148.912 27.1172 148.596 27.1172C148.115 27.1172 147.766 26.9785 147.547 26.7012C147.328 26.4199 147.219 26.0078 147.219 25.4648V21.2344H146.053V20.6602H147.219V19.0371H147.922ZM151.385 21.7324C151.615 21.3535 151.91 21.0605 152.27 20.8535C152.629 20.6465 153.021 20.543 153.447 20.543C154.127 20.543 154.633 20.7344 154.965 21.1172C155.297 21.5 155.465 22.0742 155.469 22.8398V27H154.771V22.834C154.768 22.2676 154.646 21.8457 154.408 21.5684C154.174 21.291 153.797 21.1523 153.277 21.1523C152.844 21.1523 152.459 21.2891 152.123 21.5625C151.791 21.832 151.545 22.1973 151.385 22.6582V27H150.688V18H151.385V21.7324ZM159.729 27.1172C159.189 27.1172 158.701 26.9844 158.264 26.7188C157.83 26.4531 157.492 26.084 157.25 25.6113C157.008 25.1348 156.887 24.6016 156.887 24.0117V23.7598C156.887 23.1504 157.004 22.6016 157.238 22.1133C157.477 21.625 157.807 21.2422 158.229 20.9648C158.65 20.6836 159.107 20.543 159.6 20.543C160.369 20.543 160.979 20.8066 161.428 21.334C161.881 21.8574 162.107 22.5742 162.107 23.4844V23.877H157.584V24.0117C157.584 24.7305 157.789 25.3301 158.199 25.8105C158.613 26.2871 159.133 26.5254 159.758 26.5254C160.133 26.5254 160.463 26.457 160.748 26.3203C161.037 26.1836 161.299 25.9648 161.533 25.6641L161.973 25.998C161.457 26.7441 160.709 27.1172 159.729 27.1172ZM159.6 21.1406C159.072 21.1406 158.627 21.334 158.264 21.7207C157.904 22.1074 157.686 22.627 157.607 23.2793H161.41V23.2031C161.391 22.5938 161.217 22.0977 160.889 21.7148C160.561 21.332 160.131 21.1406 159.6 21.1406Z" fill="white"/>
<path d="M88.8125 53.7852C88.1953 54.5898 87.3398 55.1992 86.2461 55.6133C85.1523 56.0273 83.9102 56.2344 82.5195 56.2344C81.0898 56.2344 79.8242 55.9102 78.7227 55.2617C77.6211 54.6133 76.7695 53.6875 76.168 52.4844C75.5742 51.2734 75.2656 49.8633 75.2422 48.2539V46.918C75.2422 44.3398 75.8594 42.3281 77.0938 40.8828C78.3281 39.4297 80.0508 38.7031 82.2617 38.7031C84.1602 38.7031 85.668 39.1719 86.7852 40.1094C87.9023 41.0469 88.5742 42.3984 88.8008 44.1641H85.8945C85.5664 42.1094 84.375 41.082 82.3203 41.082C80.9922 41.082 79.9805 41.5625 79.2852 42.5234C78.5977 43.4766 78.2422 44.8789 78.2188 46.7305V48.043C78.2188 49.8867 78.6055 51.3203 79.3789 52.3438C80.1602 53.3594 81.2422 53.8672 82.625 53.8672C84.1406 53.8672 85.2188 53.5234 85.8594 52.8359V49.4961H82.3438V47.2461H88.8125V53.7852ZM91.2617 49.543C91.2617 48.3008 91.5078 47.1836 92 46.1914C92.4922 45.1914 93.1836 44.4258 94.0742 43.8945C94.9648 43.3555 95.9883 43.0859 97.1445 43.0859C98.8555 43.0859 100.242 43.6367 101.305 44.7383C102.375 45.8398 102.953 47.3008 103.039 49.1211L103.051 49.7891C103.051 51.0391 102.809 52.1562 102.324 53.1406C101.848 54.125 101.16 54.8867 100.262 55.4258C99.3711 55.9648 98.3398 56.2344 97.168 56.2344C95.3789 56.2344 93.9453 55.6406 92.8672 54.4531C91.7969 53.2578 91.2617 51.668 91.2617 49.6836V49.543ZM94.1094 49.7891C94.1094 51.0938 94.3789 52.1172 94.918 52.8594C95.457 53.5938 96.207 53.9609 97.168 53.9609C98.1289 53.9609 98.875 53.5859 99.4062 52.8359C99.9453 52.0859 100.215 50.9883 100.215 49.543C100.215 48.2617 99.9375 47.2461 99.3828 46.4961C98.8359 45.7461 98.0898 45.3711 97.1445 45.3711C96.2148 45.3711 95.4766 45.7422 94.9297 46.4844C94.3828 47.2188 94.1094 48.3203 94.1094 49.7891ZM104.926 49.543C104.926 48.3008 105.172 47.1836 105.664 46.1914C106.156 45.1914 106.848 44.4258 107.738 43.8945C108.629 43.3555 109.652 43.0859 110.809 43.0859C112.52 43.0859 113.906 43.6367 114.969 44.7383C116.039 45.8398 116.617 47.3008 116.703 49.1211L116.715 49.7891C116.715 51.0391 116.473 52.1562 115.988 53.1406C115.512 54.125 114.824 54.8867 113.926 55.4258C113.035 55.9648 112.004 56.2344 110.832 56.2344C109.043 56.2344 107.609 55.6406 106.531 54.4531C105.461 53.2578 104.926 51.668 104.926 49.6836V49.543ZM107.773 49.7891C107.773 51.0938 108.043 52.1172 108.582 52.8594C109.121 53.5938 109.871 53.9609 110.832 53.9609C111.793 53.9609 112.539 53.5859 113.07 52.8359C113.609 52.0859 113.879 50.9883 113.879 49.543C113.879 48.2617 113.602 47.2461 113.047 46.4961C112.5 45.7461 111.754 45.3711 110.809 45.3711C109.879 45.3711 109.141 45.7422 108.594 46.4844C108.047 47.2188 107.773 48.3203 107.773 49.7891ZM118.625 49.5664C118.625 47.5977 119.086 46.0273 120.008 44.8555C120.938 43.6758 122.168 43.0859 123.699 43.0859C125.145 43.0859 126.281 43.5898 127.109 44.5977L127.238 43.3203H129.805V55.6133C129.805 57.2773 129.285 58.5898 128.246 59.5508C127.215 60.5117 125.82 60.9922 124.062 60.9922C123.133 60.9922 122.223 60.7969 121.332 60.4062C120.449 60.0234 119.777 59.5195 119.316 58.8945L120.664 57.1836C121.539 58.2227 122.617 58.7422 123.898 58.7422C124.844 58.7422 125.59 58.4844 126.137 57.9688C126.684 57.4609 126.957 56.7109 126.957 55.7188V54.8633C126.137 55.7773 125.043 56.2344 123.676 56.2344C122.191 56.2344 120.977 55.6445 120.031 54.4648C119.094 53.2852 118.625 51.6523 118.625 49.5664ZM121.461 49.8125C121.461 51.0859 121.719 52.0898 122.234 52.8242C122.758 53.5508 123.48 53.9141 124.402 53.9141C125.551 53.9141 126.402 53.4219 126.957 52.4375V46.8594C126.418 45.8984 125.574 45.418 124.426 45.418C123.488 45.418 122.758 45.7891 122.234 46.5312C121.719 47.2734 121.461 48.3672 121.461 49.8125ZM135.77 56H132.922V38H135.77V56ZM144.465 56.2344C142.66 56.2344 141.195 55.668 140.07 54.5352C138.953 53.3945 138.395 51.8789 138.395 49.9883V49.6367C138.395 48.3711 138.637 47.2422 139.121 46.25C139.613 45.25 140.301 44.4727 141.184 43.918C142.066 43.3633 143.051 43.0859 144.137 43.0859C145.863 43.0859 147.195 43.6367 148.133 44.7383C149.078 45.8398 149.551 47.3984 149.551 49.4141V50.5625H141.266C141.352 51.6094 141.699 52.4375 142.309 53.0469C142.926 53.6562 143.699 53.9609 144.629 53.9609C145.934 53.9609 146.996 53.4336 147.816 52.3789L149.352 53.8438C148.844 54.6016 148.164 55.1914 147.312 55.6133C146.469 56.0273 145.52 56.2344 144.465 56.2344ZM144.125 45.3711C143.344 45.3711 142.711 45.6445 142.227 46.1914C141.75 46.7383 141.445 47.5 141.312 48.4766H146.738V48.2656C146.676 47.3125 146.422 46.5938 145.977 46.1094C145.531 45.6172 144.914 45.3711 144.125 45.3711ZM160.988 49.6602V56H158.023V38.9375H164.551C166.457 38.9375 167.969 39.4336 169.086 40.4258C170.211 41.418 170.773 42.7305 170.773 44.3633C170.773 46.0352 170.223 47.3359 169.121 48.2656C168.027 49.1953 166.492 49.6602 164.516 49.6602H160.988ZM160.988 47.2812H164.551C165.605 47.2812 166.41 47.0352 166.965 46.543C167.52 46.043 167.797 45.3242 167.797 44.3867C167.797 43.4648 167.516 42.7305 166.953 42.1836C166.391 41.6289 165.617 41.3438 164.633 41.3281H160.988V47.2812ZM176.129 56H173.281V38H176.129V56ZM186.816 56C186.691 55.7578 186.582 55.3633 186.488 54.8164C185.582 55.7617 184.473 56.2344 183.16 56.2344C181.887 56.2344 180.848 55.8711 180.043 55.1445C179.238 54.418 178.836 53.5195 178.836 52.4492C178.836 51.0977 179.336 50.0625 180.336 49.3438C181.344 48.6172 182.781 48.2539 184.648 48.2539H186.395V47.4219C186.395 46.7656 186.211 46.2422 185.844 45.8516C185.477 45.4531 184.918 45.2539 184.168 45.2539C183.52 45.2539 182.988 45.418 182.574 45.7461C182.16 46.0664 181.953 46.4766 181.953 46.9766H179.105C179.105 46.2812 179.336 45.6328 179.797 45.0312C180.258 44.4219 180.883 43.9453 181.672 43.6016C182.469 43.2578 183.355 43.0859 184.332 43.0859C185.816 43.0859 187 43.4609 187.883 44.2109C188.766 44.9531 189.219 46 189.242 47.3516V53.0703C189.242 54.2109 189.402 55.1211 189.723 55.8008V56H186.816ZM183.688 53.9492C184.25 53.9492 184.777 53.8125 185.27 53.5391C185.77 53.2656 186.145 52.8984 186.395 52.4375V50.0469H184.859C183.805 50.0469 183.012 50.2305 182.48 50.5977C181.949 50.9648 181.684 51.4844 181.684 52.1562C181.684 52.7031 181.863 53.1406 182.223 53.4688C182.59 53.7891 183.078 53.9492 183.688 53.9492ZM196.473 51.9219L199.051 43.3203H202.086L197.047 57.9219C196.273 60.0547 194.961 61.1211 193.109 61.1211C192.695 61.1211 192.238 61.0508 191.738 60.9102V58.707L192.277 58.7422C192.996 58.7422 193.535 58.6094 193.895 58.3438C194.262 58.0859 194.551 57.6484 194.762 57.0312L195.172 55.9414L190.719 43.3203H193.789L196.473 51.9219Z" fill="white"/>
<defs>
<filter id="filter0_ii_144_1309" x="24" y="16" width="41.2947" height="46" filterUnits="userSpaceOnUse" color-interpolation-filters="sRGB">
<feFlood flood-opacity="0" result="BackgroundImageFix"/>
<feBlend mode="normal" in="SourceGraphic" in2="BackgroundImageFix" result="shape"/>
<feColorMatrix in="SourceAlpha" type="matrix" values="0 0 0 0 0 0 0 0 0 0 0 0 0 0 0 0 0 0 127 0" result="hardAlpha"/>
<feOffset dy="-0.15"/>
<feComposite in2="hardAlpha" operator="arithmetic" k2="-1" k3="1"/>
<feColorMatrix type="matrix" values="0 0 0 0 0 0 0 0 0 0 0 0 0 0 0 0 0 0 0.12 0"/>
<feBlend mode="normal" in2="shape" result="effect1_innerShadow_144_1309"/>
<feColorMatrix in="SourceAlpha" type="matrix" values="0 0 0 0 0 0 0 0 0 0 0 0 0 0 0 0 0 0 127 0" result="hardAlpha"/>
<feOffset dy="0.15"/>
<feComposite in2="hardAlpha" operator="arithmetic" k2="-1" k3="1"/>
<feColorMatrix type="matrix" values="0 0 0 0 1 0 0 0 0 1 0 0 0 0 1 0 0 0 0.25 0"/>
<feBlend mode="normal" in2="effect1_innerShadow_144_1309" result="effect2_innerShadow_144_1309"/>
</filter>
<filter id="filter1_i_144_1309" x="24.8281" y="38.9995" width="29.8418" height="23.0005" filterUnits="userSpaceOnUse" color-interpolation-filters="sRGB">
<feFlood flood-opacity="0" result="BackgroundImageFix"/>
<feBlend mode="normal" in="SourceGraphic" in2="BackgroundImageFix" result="shape"/>
<feColorMatrix in="SourceAlpha" type="matrix" values="0 0 0 0 0 0 0 0 0 0 0 0 0 0 0 0 0 0 127 0" result="hardAlpha"/>
<feOffset dy="-0.15"/>
<feComposite in2="hardAlpha" operator="arithmetic" k2="-1" k3="1"/>
<feColorMatrix type="matrix" values="0 0 0 0 0 0 0 0 0 0 0 0 0 0 0 0 0 0 0.08 0"/>
<feBlend mode="normal" in2="shape" result="effect1_innerShadow_144_1309"/>
</filter>
<linearGradient id="paint0_linear_144_1309" x1="45.1533" y1="18.8044" x2="15.1397" y2="48.818" gradientUnits="userSpaceOnUse">
<stop stop-color="#00A0FF"/>
<stop offset="0.0066" stop-color="#00A1FF"/>
<stop offset="0.2601" stop-color="#00BEFF"/>
<stop offset="0.5122" stop-color="#00D2FF"/>
<stop offset="0.7604" stop-color="#00DFFF"/>
<stop offset="1" stop-color="#00E3FF"/>
</linearGradient>
<linearGradient id="paint1_linear_144_1309" x1="66.6731" y1="38.9994" x2="23.4002" y2="38.9994" gradientUnits="userSpaceOnUse">
<stop stop-color="#FFE000"/>
<stop offset="0.4087" stop-color="#FFBD00"/>
<stop offset="0.7754" stop-color="#FFA500"/>
<stop offset="1" stop-color="#FF9C00"/>
</linearGradient>
<linearGradient id="paint2_linear_144_1309" x1="50.5675" y1="43.102" x2="9.86533" y2="83.8042" gradientUnits="userSpaceOnUse">
<stop stop-color="#FF3A44"/>
<stop offset="1" stop-color="#C31162"/>
</linearGradient>
<linearGradient id="paint3_linear_144_1309" x1="19.2149" y1="3.54508" x2="37.3896" y2="21.7197" gradientUnits="userSpaceOnUse">
<stop stop-color="#32A071"/>
<stop offset="0.0685" stop-color="#2DA771"/>
<stop offset="0.4762" stop-color="#15CF74"/>
<stop offset="0.8009" stop-color="#06E775"/>
<stop offset="1" stop-color="#00F076"/>
</linearGradient>
</defs>
</svg>
